<mxfile host="app.diagrams.net" modified="2023-10-30T00:41:12.940Z" agent="Mozilla/5.0 (Windows NT 10.0; Win64; x64) AppleWebKit/537.36 (KHTML, like Gecko) Chrome/118.0.0.0 Safari/537.36" etag="qGkjaJn0JzwHYyNE_Kfk" version="22.0.8" type="device">
  <diagram id="C5RBs43oDa-KdzZeNtuy" name="Page-1">
    <mxGraphModel dx="546" dy="781" grid="1" gridSize="10" guides="1" tooltips="1" connect="1" arrows="1" fold="1" page="1" pageScale="1" pageWidth="827" pageHeight="1169" math="0" shadow="0">
      <root>
        <mxCell id="WIyWlLk6GJQsqaUBKTNV-0" />
        <mxCell id="WIyWlLk6GJQsqaUBKTNV-1" parent="WIyWlLk6GJQsqaUBKTNV-0" />
        <mxCell id="Ns6Fty-GzlH_FeDpLpPX-0" value="User" style="shape=umlActor;verticalLabelPosition=bottom;verticalAlign=top;html=1;" vertex="1" parent="WIyWlLk6GJQsqaUBKTNV-1">
          <mxGeometry x="45" y="66" width="30" height="60" as="geometry" />
        </mxCell>
        <mxCell id="Ns6Fty-GzlH_FeDpLpPX-3" value="" style="endArrow=none;dashed=1;html=1;dashPattern=1 3;strokeWidth=2;rounded=0;" edge="1" parent="WIyWlLk6GJQsqaUBKTNV-1">
          <mxGeometry width="50" height="50" relative="1" as="geometry">
            <mxPoint x="60" y="600" as="sourcePoint" />
            <mxPoint x="60" y="160" as="targetPoint" />
          </mxGeometry>
        </mxCell>
        <mxCell id="Ns6Fty-GzlH_FeDpLpPX-5" value="GameApplication" style="html=1;whiteSpace=wrap;" vertex="1" parent="WIyWlLk6GJQsqaUBKTNV-1">
          <mxGeometry x="150" y="71" width="110" height="50" as="geometry" />
        </mxCell>
        <mxCell id="Ns6Fty-GzlH_FeDpLpPX-6" value="" style="endArrow=none;dashed=1;html=1;dashPattern=1 3;strokeWidth=2;rounded=0;" edge="1" parent="WIyWlLk6GJQsqaUBKTNV-1" source="Ns6Fty-GzlH_FeDpLpPX-24">
          <mxGeometry width="50" height="50" relative="1" as="geometry">
            <mxPoint x="204" y="440" as="sourcePoint" />
            <mxPoint x="204.76" y="121" as="targetPoint" />
          </mxGeometry>
        </mxCell>
        <mxCell id="Ns6Fty-GzlH_FeDpLpPX-7" value="KeyHandler" style="html=1;whiteSpace=wrap;" vertex="1" parent="WIyWlLk6GJQsqaUBKTNV-1">
          <mxGeometry x="303" y="71" width="110" height="50" as="geometry" />
        </mxCell>
        <mxCell id="Ns6Fty-GzlH_FeDpLpPX-8" value="Player" style="html=1;whiteSpace=wrap;" vertex="1" parent="WIyWlLk6GJQsqaUBKTNV-1">
          <mxGeometry x="460" y="71" width="110" height="50" as="geometry" />
        </mxCell>
        <mxCell id="Ns6Fty-GzlH_FeDpLpPX-9" value="" style="endArrow=none;dashed=1;html=1;dashPattern=1 3;strokeWidth=2;rounded=0;" edge="1" parent="WIyWlLk6GJQsqaUBKTNV-1" source="Ns6Fty-GzlH_FeDpLpPX-19">
          <mxGeometry width="50" height="50" relative="1" as="geometry">
            <mxPoint x="514.62" y="440" as="sourcePoint" />
            <mxPoint x="515.38" y="121" as="targetPoint" />
          </mxGeometry>
        </mxCell>
        <mxCell id="Ns6Fty-GzlH_FeDpLpPX-10" value="" style="endArrow=none;dashed=1;html=1;dashPattern=1 3;strokeWidth=2;rounded=0;" edge="1" parent="WIyWlLk6GJQsqaUBKTNV-1" source="Ns6Fty-GzlH_FeDpLpPX-17">
          <mxGeometry width="50" height="50" relative="1" as="geometry">
            <mxPoint x="357.62" y="440" as="sourcePoint" />
            <mxPoint x="358.38" y="121" as="targetPoint" />
          </mxGeometry>
        </mxCell>
        <mxCell id="Ns6Fty-GzlH_FeDpLpPX-11" value="" style="endArrow=classic;html=1;rounded=0;" edge="1" parent="WIyWlLk6GJQsqaUBKTNV-1">
          <mxGeometry width="50" height="50" relative="1" as="geometry">
            <mxPoint x="60" y="160" as="sourcePoint" />
            <mxPoint x="200" y="160" as="targetPoint" />
          </mxGeometry>
        </mxCell>
        <mxCell id="Ns6Fty-GzlH_FeDpLpPX-12" value="WASD Input" style="text;html=1;strokeColor=none;fillColor=none;align=center;verticalAlign=middle;whiteSpace=wrap;rounded=0;" vertex="1" parent="WIyWlLk6GJQsqaUBKTNV-1">
          <mxGeometry x="100" y="130" width="60" height="30" as="geometry" />
        </mxCell>
        <mxCell id="Ns6Fty-GzlH_FeDpLpPX-13" value="" style="endArrow=classic;html=1;rounded=0;" edge="1" parent="WIyWlLk6GJQsqaUBKTNV-1">
          <mxGeometry width="50" height="50" relative="1" as="geometry">
            <mxPoint x="210" y="160" as="sourcePoint" />
            <mxPoint x="350" y="160" as="targetPoint" />
          </mxGeometry>
        </mxCell>
        <mxCell id="Ns6Fty-GzlH_FeDpLpPX-14" value="Scene Detects Key Press" style="text;html=1;strokeColor=none;fillColor=none;align=center;verticalAlign=middle;whiteSpace=wrap;rounded=0;" vertex="1" parent="WIyWlLk6GJQsqaUBKTNV-1">
          <mxGeometry x="230" y="126" width="90" height="30" as="geometry" />
        </mxCell>
        <mxCell id="Ns6Fty-GzlH_FeDpLpPX-15" value="" style="endArrow=classic;html=1;rounded=0;" edge="1" parent="WIyWlLk6GJQsqaUBKTNV-1" target="Ns6Fty-GzlH_FeDpLpPX-19">
          <mxGeometry width="50" height="50" relative="1" as="geometry">
            <mxPoint x="360" y="214" as="sourcePoint" />
            <mxPoint x="500" y="214" as="targetPoint" />
          </mxGeometry>
        </mxCell>
        <mxCell id="Ns6Fty-GzlH_FeDpLpPX-16" value="Updates Key Press Booleans" style="text;html=1;strokeColor=none;fillColor=none;align=center;verticalAlign=middle;whiteSpace=wrap;rounded=0;" vertex="1" parent="WIyWlLk6GJQsqaUBKTNV-1">
          <mxGeometry x="380" y="180" width="100" height="30" as="geometry" />
        </mxCell>
        <mxCell id="Ns6Fty-GzlH_FeDpLpPX-18" value="" style="endArrow=none;dashed=1;html=1;dashPattern=1 3;strokeWidth=2;rounded=0;" edge="1" parent="WIyWlLk6GJQsqaUBKTNV-1" target="Ns6Fty-GzlH_FeDpLpPX-17">
          <mxGeometry width="50" height="50" relative="1" as="geometry">
            <mxPoint x="357.62" y="600" as="sourcePoint" />
            <mxPoint x="357.62" y="369.9999999999999" as="targetPoint" />
          </mxGeometry>
        </mxCell>
        <mxCell id="Ns6Fty-GzlH_FeDpLpPX-17" value="" style="html=1;points=[[0,0,0,0,5],[0,1,0,0,-5],[1,0,0,0,5],[1,1,0,0,-5]];perimeter=orthogonalPerimeter;outlineConnect=0;targetShapes=umlLifeline;portConstraint=eastwest;newEdgeStyle={&quot;curved&quot;:0,&quot;rounded&quot;:0};" vertex="1" parent="WIyWlLk6GJQsqaUBKTNV-1">
          <mxGeometry x="349.5" y="160" width="17" height="54" as="geometry" />
        </mxCell>
        <mxCell id="Ns6Fty-GzlH_FeDpLpPX-20" value="" style="endArrow=none;dashed=1;html=1;dashPattern=1 3;strokeWidth=2;rounded=0;" edge="1" parent="WIyWlLk6GJQsqaUBKTNV-1">
          <mxGeometry width="50" height="50" relative="1" as="geometry">
            <mxPoint x="514" y="600" as="sourcePoint" />
            <mxPoint x="514.6199999999999" y="270" as="targetPoint" />
          </mxGeometry>
        </mxCell>
        <mxCell id="Ns6Fty-GzlH_FeDpLpPX-19" value="" style="html=1;points=[[0,0,0,0,5],[0,1,0,0,-5],[1,0,0,0,5],[1,1,0,0,-5]];perimeter=orthogonalPerimeter;outlineConnect=0;targetShapes=umlLifeline;portConstraint=eastwest;newEdgeStyle={&quot;curved&quot;:0,&quot;rounded&quot;:0};" vertex="1" parent="WIyWlLk6GJQsqaUBKTNV-1">
          <mxGeometry x="506.5" y="214" width="17" height="66" as="geometry" />
        </mxCell>
        <mxCell id="Ns6Fty-GzlH_FeDpLpPX-21" value="" style="endArrow=classic;html=1;rounded=0;" edge="1" parent="WIyWlLk6GJQsqaUBKTNV-1">
          <mxGeometry width="50" height="50" relative="1" as="geometry">
            <mxPoint x="513.5" y="280" as="sourcePoint" />
            <mxPoint x="213.5" y="280" as="targetPoint" />
          </mxGeometry>
        </mxCell>
        <mxCell id="Ns6Fty-GzlH_FeDpLpPX-22" value="Direction &amp;amp; Speed Information Updated" style="text;html=1;strokeColor=none;fillColor=none;align=center;verticalAlign=middle;whiteSpace=wrap;rounded=0;" vertex="1" parent="WIyWlLk6GJQsqaUBKTNV-1">
          <mxGeometry x="369" y="290" width="122" height="30" as="geometry" />
        </mxCell>
        <mxCell id="Ns6Fty-GzlH_FeDpLpPX-25" value="" style="endArrow=none;dashed=1;html=1;dashPattern=1 3;strokeWidth=2;rounded=0;" edge="1" parent="WIyWlLk6GJQsqaUBKTNV-1" target="Ns6Fty-GzlH_FeDpLpPX-24">
          <mxGeometry width="50" height="50" relative="1" as="geometry">
            <mxPoint x="204" y="440" as="sourcePoint" />
            <mxPoint x="204.76" y="121" as="targetPoint" />
          </mxGeometry>
        </mxCell>
        <mxCell id="Ns6Fty-GzlH_FeDpLpPX-24" value="" style="html=1;points=[[0,0,0,0,5],[0,1,0,0,-5],[1,0,0,0,5],[1,1,0,0,-5]];perimeter=orthogonalPerimeter;outlineConnect=0;targetShapes=umlLifeline;portConstraint=eastwest;newEdgeStyle={&quot;curved&quot;:0,&quot;rounded&quot;:0};" vertex="1" parent="WIyWlLk6GJQsqaUBKTNV-1">
          <mxGeometry x="196.5" y="280" width="17" height="170" as="geometry" />
        </mxCell>
        <mxCell id="Ns6Fty-GzlH_FeDpLpPX-32" value="" style="html=1;points=[[0,0,0,0,5],[0,1,0,0,-5],[1,0,0,0,5],[1,1,0,0,-5]];perimeter=orthogonalPerimeter;outlineConnect=0;targetShapes=umlLifeline;portConstraint=eastwest;newEdgeStyle={&quot;curved&quot;:0,&quot;rounded&quot;:0};" vertex="1" parent="WIyWlLk6GJQsqaUBKTNV-1">
          <mxGeometry x="210" y="320" width="10" height="40" as="geometry" />
        </mxCell>
        <mxCell id="Ns6Fty-GzlH_FeDpLpPX-33" value="Updates Player&lt;br&gt;&amp;nbsp;Information" style="html=1;align=left;spacingLeft=2;endArrow=block;rounded=0;edgeStyle=orthogonalEdgeStyle;curved=0;rounded=0;" edge="1" target="Ns6Fty-GzlH_FeDpLpPX-32" parent="WIyWlLk6GJQsqaUBKTNV-1">
          <mxGeometry x="0.0053" relative="1" as="geometry">
            <mxPoint x="215" y="300" as="sourcePoint" />
            <Array as="points">
              <mxPoint x="245" y="330" />
            </Array>
            <mxPoint as="offset" />
          </mxGeometry>
        </mxCell>
        <mxCell id="Ns6Fty-GzlH_FeDpLpPX-34" value="" style="html=1;points=[[0,0,0,0,5],[0,1,0,0,-5],[1,0,0,0,5],[1,1,0,0,-5]];perimeter=orthogonalPerimeter;outlineConnect=0;targetShapes=umlLifeline;portConstraint=eastwest;newEdgeStyle={&quot;curved&quot;:0,&quot;rounded&quot;:0};" vertex="1" parent="WIyWlLk6GJQsqaUBKTNV-1">
          <mxGeometry x="210" y="390" width="10" height="40" as="geometry" />
        </mxCell>
        <mxCell id="Ns6Fty-GzlH_FeDpLpPX-35" value="Renders&lt;br&gt;Player Information" style="html=1;align=left;spacingLeft=2;endArrow=block;rounded=0;edgeStyle=orthogonalEdgeStyle;curved=0;rounded=0;" edge="1" parent="WIyWlLk6GJQsqaUBKTNV-1" target="Ns6Fty-GzlH_FeDpLpPX-34">
          <mxGeometry relative="1" as="geometry">
            <mxPoint x="215" y="370" as="sourcePoint" />
            <Array as="points">
              <mxPoint x="245" y="400" />
            </Array>
          </mxGeometry>
        </mxCell>
        <mxCell id="Ns6Fty-GzlH_FeDpLpPX-36" value="" style="endArrow=none;dashed=1;html=1;dashPattern=1 3;strokeWidth=2;rounded=0;" edge="1" parent="WIyWlLk6GJQsqaUBKTNV-1">
          <mxGeometry width="50" height="50" relative="1" as="geometry">
            <mxPoint x="205" y="600" as="sourcePoint" />
            <mxPoint x="204.66" y="450" as="targetPoint" />
          </mxGeometry>
        </mxCell>
        <mxCell id="Ns6Fty-GzlH_FeDpLpPX-37" value="GameLoop" style="shape=umlFrame;whiteSpace=wrap;html=1;pointerEvents=0;width=70;height=30;" vertex="1" parent="WIyWlLk6GJQsqaUBKTNV-1">
          <mxGeometry x="120" y="260" width="230" height="200" as="geometry" />
        </mxCell>
        <mxCell id="Ns6Fty-GzlH_FeDpLpPX-38" value="" style="endArrow=classic;html=1;rounded=0;" edge="1" parent="WIyWlLk6GJQsqaUBKTNV-1">
          <mxGeometry width="50" height="50" relative="1" as="geometry">
            <mxPoint x="196.5" y="450" as="sourcePoint" />
            <mxPoint x="56.5" y="450" as="targetPoint" />
          </mxGeometry>
        </mxCell>
        <mxCell id="Ns6Fty-GzlH_FeDpLpPX-39" value="Player Character Moves on Screen" style="text;html=1;strokeColor=none;fillColor=none;align=center;verticalAlign=middle;whiteSpace=wrap;rounded=0;" vertex="1" parent="WIyWlLk6GJQsqaUBKTNV-1">
          <mxGeometry x="75" y="460" width="110" height="30" as="geometry" />
        </mxCell>
      </root>
    </mxGraphModel>
  </diagram>
</mxfile>
